<svg width="25" height="28" viewBox="0 0 25 28" fill="none" xmlns="http://www.w3.org/2000/svg">
<path d="M9.02778 0C7.73003 0 6.65365 1.09197 6.34549 2.56747C6.31076 2.56747 6.28472 2.55682 6.25 2.55682C4.71788 2.55682 3.47222 4.08558 3.47222 5.96591C3.47222 6.22159 3.49826 6.47195 3.54601 6.71165C2.27865 7.35085 1.38889 8.87429 1.38889 10.6534C1.38889 11.3246 1.52778 11.9478 1.74913 12.5124C0.707465 13.2475 0 14.6112 0 16.1932C0 17.967 0.885417 19.4904 2.1441 20.1296C2.10503 20.3746 2.08333 20.625 2.08333 20.8807C2.08333 23.0007 3.4809 24.7159 5.20833 24.7159C5.38628 24.7159 5.5599 24.6893 5.72917 24.652C6.14583 26.1701 7.30035 27.2727 8.68056 27.2727C10.408 27.2727 11.8056 25.5575 11.8056 23.4375V3.40909C11.8056 1.52876 10.5599 0 9.02778 0ZM25 16.1932C25 14.6112 24.2925 13.2475 23.2509 12.5124C23.4766 11.9478 23.6111 11.3246 23.6111 10.6534C23.6111 8.87429 22.7214 7.35085 21.454 6.71165C21.4974 6.47195 21.5278 6.22159 21.5278 5.96591C21.5278 4.08558 20.2821 2.55682 18.75 2.55682C18.7153 2.55682 18.6849 2.56747 18.6545 2.56747C18.3464 1.09197 17.27 0 15.9722 0C14.4401 0 13.1944 1.52344 13.1944 3.40909V23.4375C13.1944 25.5575 14.592 27.2727 16.3194 27.2727C17.6997 27.2727 18.8542 26.1701 19.2708 24.652C19.4401 24.6893 19.6137 24.7159 19.7917 24.7159C21.5191 24.7159 22.9167 23.0007 22.9167 20.8807C22.9167 20.625 22.895 20.3746 22.8559 20.1296C24.1146 19.4904 25 17.967 25 16.1932Z" fill="#BB86FC" fill-opacity="0.75"/>
</svg>
