<svg width="25" height="25" viewBox="0 0 25 25" fill="none" xmlns="http://www.w3.org/2000/svg">
<path d="M14.375 0.616211H10.625C9.93477 0.616211 9.375 1.37953 9.375 2.32076V7.43439C9.375 8.37562 9.93477 9.13894 10.625 9.13894H14.375C15.0652 9.13894 15.625 8.37562 15.625 7.43439V2.32076C15.625 1.37953 15.0652 0.616211 14.375 0.616211ZM8.125 3.59917H4.81445C4.44336 2.35059 3.54844 1.46848 2.5 1.46848C1.11953 1.46848 0 2.99458 0 4.87757C0 6.76056 1.11953 8.28666 2.5 8.28666C3.54844 8.28666 4.44336 7.40456 4.81445 6.15598H7.92891C5.76602 7.88823 4.18438 10.8073 3.65 14.2526H5.57969C6.02109 12.0361 7.01602 10.1398 8.35469 8.84277C8.21016 8.41238 8.125 7.93777 8.125 7.43439V3.59917ZM6.25 15.9571H2.5C1.80977 15.9571 1.25 16.7204 1.25 17.6617V22.7753C1.25 23.7165 1.80977 24.4798 2.5 24.4798H6.25C6.94023 24.4798 7.5 23.7165 7.5 22.7753V17.6617C7.5 16.7204 6.94023 15.9571 6.25 15.9571ZM22.5 1.46848C21.4516 1.46848 20.5566 2.35059 20.1855 3.59917H16.875V7.43439C16.875 7.93777 16.7895 8.41238 16.6453 8.84277C17.984 10.1398 18.9789 12.0361 19.4203 14.2526H21.35C20.8156 10.8073 19.234 7.88823 17.0711 6.15598H20.1855C20.5566 7.40456 21.4516 8.28666 22.5 8.28666C23.8805 8.28666 25 6.76056 25 4.87757C25 2.99458 23.8805 1.46848 22.5 1.46848ZM22.5 15.9571H18.75C18.0598 15.9571 17.5 16.7204 17.5 17.6617V22.7753C17.5 23.7165 18.0598 24.4798 18.75 24.4798H22.5C23.1902 24.4798 23.75 23.7165 23.75 22.7753V17.6617C23.75 16.7204 23.1902 15.9571 22.5 15.9571Z" fill="#BB86FC" fill-opacity="0.75"/>
</svg>
