<svg width="22" height="22" viewBox="0 0 22 22" fill="none" xmlns="http://www.w3.org/2000/svg">
<path d="M19.6429 0.859375H2.35714C1.73199 0.859375 1.13244 1.09643 0.690391 1.51838C0.248341 1.94034 0 2.51264 0 3.10938L0 19.6094C0 20.2061 0.248341 20.7784 0.690391 21.2004C1.13244 21.6223 1.73199 21.8594 2.35714 21.8594H9.0971V14.7198H6.00335V11.3594H9.0971V8.79813C9.0971 5.88484 10.9141 4.27562 13.697 4.27562C15.0297 4.27562 16.4234 4.5025 16.4234 4.5025V7.36188H14.8878C13.3748 7.36188 12.9029 8.25812 12.9029 9.17734V11.3594H16.2805L15.7403 14.7198H12.9029V21.8594H19.6429C20.268 21.8594 20.8676 21.6223 21.3096 21.2004C21.7517 20.7784 22 20.2061 22 19.6094V3.10938C22 2.51264 21.7517 1.94034 21.3096 1.51838C20.8676 1.09643 20.268 0.859375 19.6429 0.859375Z" fill="#BB86FC" fill-opacity="0.75"/>
</svg>
