<svg width="22" height="22" viewBox="0 0 22 22" fill="none" xmlns="http://www.w3.org/2000/svg">
<path d="M19.6429 0.855957H2.35714C1.0558 0.855957 0 1.86377 0 3.10596V19.606C0 20.8481 1.0558 21.856 2.35714 21.856H19.6429C20.9442 21.856 22 20.8481 22 19.606V3.10596C22 1.86377 20.9442 0.855957 19.6429 0.855957ZM13.6174 18.8419C13.2049 18.9122 13.0527 18.6685 13.0527 18.4669C13.0527 18.2138 13.0625 16.92 13.0625 15.8747C13.0625 15.1435 12.8071 14.6794 12.5076 14.4356C14.3246 14.2435 16.2397 14.0044 16.2397 11.0091C16.2397 10.156 15.9205 9.72939 15.4 9.18096C15.4835 8.97939 15.7634 8.14971 15.3165 7.07158C14.6339 6.87002 13.0723 7.91064 13.0723 7.91064C12.4241 7.73721 11.7219 7.64814 11.0295 7.64814C10.3371 7.64814 9.63482 7.73721 8.98661 7.91064C8.98661 7.91064 7.425 6.87002 6.74241 7.07158C6.29554 8.14502 6.57054 8.97471 6.65893 9.18096C6.13839 9.72939 5.89286 10.156 5.89286 11.0091C5.89286 13.9903 7.72455 14.2435 9.54152 14.4356C9.3058 14.6372 9.09464 14.9841 9.02098 15.481C8.55446 15.6825 7.36116 16.0294 6.64911 14.8294C6.20223 14.0888 5.39687 14.0278 5.39687 14.0278C4.60134 14.0185 5.34286 14.506 5.34286 14.506C5.87321 14.7403 6.24643 15.6403 6.24643 15.6403C6.72277 17.0325 9.00134 16.5638 9.00134 16.5638C9.00134 17.2153 9.01116 18.2747 9.01116 18.4669C9.01116 18.6685 8.86384 18.9122 8.44643 18.8419C5.20536 17.806 2.93661 14.8622 2.93661 11.4216C2.93661 7.11846 6.38393 3.85127 10.892 3.85127C15.4 3.85127 19.0536 7.11846 19.0536 11.4216C19.0585 14.8622 16.8585 17.8106 13.6174 18.8419ZM8.8 15.9778C8.7067 15.9966 8.6183 15.9591 8.60848 15.8981C8.59866 15.8278 8.6625 15.7669 8.7558 15.7481C8.84911 15.7388 8.9375 15.7763 8.94732 15.8372C8.96205 15.8981 8.89821 15.9591 8.8 15.9778ZM8.33348 15.9356C8.33348 15.9966 8.25982 16.0481 8.16161 16.0481C8.05357 16.0575 7.97991 16.006 7.97991 15.9356C7.97991 15.8747 8.05357 15.8231 8.15179 15.8231C8.24509 15.8138 8.33348 15.8653 8.33348 15.9356ZM7.66071 15.8841C7.64107 15.945 7.54286 15.9731 7.45937 15.945C7.36607 15.9263 7.30223 15.856 7.32188 15.795C7.34152 15.7341 7.43973 15.706 7.52321 15.7247C7.62143 15.7528 7.68527 15.8231 7.66071 15.8841ZM7.0567 15.631C7.0125 15.6825 6.9192 15.6731 6.84554 15.6028C6.77187 15.5419 6.75223 15.4528 6.80134 15.4106C6.84554 15.3591 6.93884 15.3685 7.0125 15.4388C7.07634 15.4997 7.10089 15.5935 7.0567 15.631ZM6.60982 15.2044C6.56563 15.2325 6.48214 15.2044 6.42812 15.1341C6.37411 15.0638 6.37411 14.9841 6.42812 14.9513C6.48214 14.9091 6.56563 14.9419 6.60982 15.0122C6.66384 15.0825 6.66384 15.1669 6.60982 15.2044ZM6.29063 14.7497C6.24643 14.7919 6.17277 14.7685 6.11875 14.7216C6.06473 14.6606 6.05491 14.5903 6.09911 14.5575C6.1433 14.5153 6.21696 14.5388 6.27098 14.5856C6.325 14.6466 6.33482 14.7169 6.29063 14.7497ZM5.96161 14.4028C5.94196 14.445 5.87812 14.4544 5.82411 14.4216C5.76027 14.3935 5.7308 14.3419 5.75045 14.2997C5.77009 14.2716 5.82411 14.2575 5.88795 14.281C5.95179 14.3138 5.98125 14.3653 5.96161 14.4028Z" fill="#BB86FC" fill-opacity="0.75"/>
</svg>
