<svg width="25" height="25" viewBox="0 0 25 25" fill="none" xmlns="http://www.w3.org/2000/svg">
<path d="M8 9.84362C7.58594 9.09255 6.80078 8.93808 6.25 9.50271C5.69922 10.0673 5.58594 11.138 6 11.8891L7.48828 14.595C7.67578 14.9359 7.64844 15.41 7.42969 15.7083L6.92969 16.3901C6.66797 16.747 6.24219 16.7204 6.00781 16.3315L2.5 10.5894V2.68453C2.5 1.7417 1.94141 0.97998 1.25 0.97998C0.558594 0.97998 0 1.7417 0 2.68453V14.318C0 14.8987 0.144531 15.4633 0.410156 15.9161L4.47656 23.0698C4.67188 23.4161 4.80469 23.8102 4.88281 24.2257C4.95312 24.5933 5.19922 24.8436 5.48047 24.8436H10.625C10.9688 24.8436 11.25 24.4601 11.25 23.9913V18.0254C11.25 16.5499 10.8984 15.1171 10.25 13.9345L8 9.84362ZM23.75 0.97998C23.0586 0.97998 22.5 1.7417 22.5 2.68453V10.5894L18.9922 16.3315C18.7578 16.7151 18.3281 16.7417 18.0703 16.3901L17.5703 15.7083C17.3516 15.41 17.3242 14.9359 17.5117 14.595L19 11.8891C19.4141 11.138 19.3008 10.0673 18.75 9.50271C18.1992 8.93808 17.4141 9.09255 17 9.84362L14.75 13.9345C14.1016 15.1171 13.75 16.5499 13.75 18.0254V23.9913C13.75 24.4601 14.0312 24.8436 14.375 24.8436H19.5195C19.7969 24.8436 20.0469 24.5933 20.1172 24.2257C20.1953 23.8102 20.3281 23.4161 20.5234 23.0698L24.5898 15.9161C24.8555 15.4633 25 14.8987 25 14.318V2.68453C25 1.7417 24.4414 0.97998 23.75 0.97998Z" fill="#BB86FC" fill-opacity="0.75"/>
</svg>
