<svg width="50" height="61" viewBox="0 0 50 61" fill="none" xmlns="http://www.w3.org/2000/svg">
<path d="M44.241 30.4829C44.0375 30.4829 43.521 30.5529 42.99 30.7179C42.8545 28.9114 41.3405 27.4829 39.5 27.4829C38.66 27.4829 37.8885 27.7799 37.285 28.2749C36.792 26.9384 35.505 25.9829 34 25.9829C33.1245 25.9829 32.224 26.2509 31.5 26.7689V17.7329C31.5 15.4899 30.1895 13.9829 28.2395 13.9829C26.28 13.9829 24.858 15.5599 24.858 17.7344L24.906 38.8539L22.026 35.8314C21.251 35.0559 20.226 34.6289 19.14 34.6289C18.054 34.6289 17.0285 35.0559 16.254 35.8314C14.652 37.4329 14.6485 40.0364 16.218 41.6039C16.244 41.6334 18.8525 44.5414 22.574 48.2629L23.1795 48.8704C26.7085 52.4184 29.7555 55.4829 35.8545 55.4829C42.169 55.4829 44.2815 52.3139 45.9045 49.0679C47.4655 45.9459 47.4835 33.9899 47.4835 33.4829C47.4825 31.8844 45.968 30.4829 44.241 30.4829ZM44.5615 48.3969C43.0335 51.4529 41.324 53.9829 35.8535 53.9829C30.3785 53.9829 27.6705 51.2604 24.242 47.8129L23.6335 47.2024C19.943 43.5119 17.36 40.6319 17.306 40.5734C16.8155 40.0824 16.5455 39.4289 16.547 38.7339C16.549 38.0379 16.821 37.3839 17.3135 36.8914C17.805 36.3994 18.4535 36.1284 19.139 36.1284C19.8245 36.1284 20.4725 36.3994 20.9515 36.8784L25.1165 41.2494C25.329 41.4719 25.6555 41.5429 25.939 41.4279C26.224 41.3134 26.41 41.0369 26.4095 40.7299L26.3575 17.7314C26.3575 16.6934 26.85 15.4814 28.239 15.4814C29.873 15.4814 29.9995 17.2034 29.9995 17.7314V31.7314C29.9995 32.1454 30.3355 32.4814 30.7495 32.4814C31.1635 32.4814 31.4995 32.1454 31.4995 31.7314V29.7314C31.4995 28.0804 32.9945 27.4814 33.9995 27.4814C35.1025 27.4814 35.9995 28.3784 35.9995 29.4814V32.2314C35.9995 32.6454 36.3355 32.9814 36.7495 32.9814C37.1635 32.9814 37.4995 32.6454 37.4995 32.2314V30.9814C37.4995 29.8784 38.3965 28.9814 39.4995 28.9814C40.6025 28.9814 41.4995 29.8784 41.4995 30.9814V34.2314C41.4995 34.6454 41.8355 34.9814 42.2495 34.9814C42.6635 34.9814 42.9995 34.6454 42.9995 34.2314V32.3214C43.2995 32.1754 43.8875 31.9814 44.2405 31.9814C45.1355 31.9814 45.9815 32.7099 45.9815 33.4814C45.9825 36.8409 45.7265 46.0669 44.5615 48.3969Z" fill="#BB86FC" fill-opacity="0.75"/>
<path d="M24.608 17.735L24.6546 38.2276L22.207 35.6589L22.207 35.6589L22.2028 35.6547C21.3814 34.8328 20.293 34.3789 19.14 34.3789C17.9871 34.3789 16.8982 34.8327 16.0772 35.6546C14.3809 37.3504 14.3724 40.1084 16.0362 41.7757C16.1768 41.9327 18.7549 44.7974 22.3972 48.4397L23.0022 49.0467L23.0024 49.0469L23.0185 49.0631C26.5402 52.6037 29.6526 55.7329 35.8545 55.7329C39.0567 55.7329 41.2211 54.9281 42.7935 53.689C44.3595 52.4551 45.3135 50.8089 46.1281 49.1797C46.5385 48.3589 46.8361 46.9894 47.0573 45.4219C47.2799 43.8445 47.4289 42.0338 47.5289 40.3093C47.729 36.8595 47.7335 33.7382 47.7335 33.4829V33.4828C47.7324 31.7285 46.0875 30.2329 44.241 30.2329C44.0475 30.2329 43.646 30.2844 43.2043 30.3976C42.9227 28.6067 41.3687 27.2329 39.5 27.2329C38.7186 27.2329 37.9923 27.4729 37.3913 27.8832C36.7901 26.6137 35.4961 25.7329 34 25.7329C33.2286 25.7329 32.4377 25.9296 31.75 26.3147V17.7329C31.75 16.5638 31.4081 15.5641 30.7896 14.8527C30.1685 14.1384 29.2833 13.7329 28.2395 13.7329C26.1182 13.7329 24.608 15.4469 24.608 17.7344L24.608 17.735ZM24.4193 47.6366L24.4191 47.6364L23.8106 47.0259L23.8103 47.0256C20.3231 43.5384 17.8267 40.7766 17.5205 40.4378C17.503 40.4185 17.4927 40.4071 17.4897 40.4038L17.4898 40.4037L17.4829 40.3967C17.0393 39.9527 16.7956 39.363 16.797 38.7344C16.7988 38.1046 17.0445 37.514 17.4903 37.0682L17.4904 37.0681C17.9357 36.6223 18.5209 36.3784 19.139 36.3784C19.757 36.3784 20.3406 36.6221 20.7726 37.0531L24.9355 41.4219L24.9357 41.4221C25.2183 41.7179 25.6533 41.8134 26.0326 41.6597C26.4125 41.5069 26.6602 41.1383 26.6595 40.7295L26.6595 40.7293L26.6075 17.7314C26.6075 17.7312 26.6075 17.731 26.6075 17.7309C26.6076 17.2457 26.7236 16.7376 26.9835 16.3585C27.2355 15.9911 27.6301 15.7314 28.239 15.7314C28.601 15.7314 28.864 15.8259 29.0597 15.9633C29.2577 16.1023 29.4018 16.296 29.5062 16.5157C29.718 16.9616 29.7495 17.4794 29.7495 17.7314V31.7314C29.7495 32.2835 30.1974 32.7314 30.7495 32.7314C31.3016 32.7314 31.7495 32.2835 31.7495 31.7314V29.7314C31.7495 28.994 32.078 28.5045 32.5178 28.1908C32.9676 27.8701 33.5394 27.7314 33.9995 27.7314C34.9644 27.7314 35.7495 28.5165 35.7495 29.4814V32.2314C35.7495 32.7835 36.1974 33.2314 36.7495 33.2314C37.3016 33.2314 37.7495 32.7835 37.7495 32.2314V30.9814C37.7495 30.0165 38.5346 29.2314 39.4995 29.2314C40.4644 29.2314 41.2495 30.0165 41.2495 30.9814V34.2314C41.2495 34.7835 41.6974 35.2314 42.2495 35.2314C42.8016 35.2314 43.2495 34.7835 43.2495 34.2314V32.4836C43.3706 32.4336 43.5181 32.3811 43.6702 32.3366C43.892 32.2719 44.1 32.2314 44.2405 32.2314C44.6219 32.2314 45.0006 32.3878 45.2834 32.6315C45.5681 32.8767 45.7315 33.1876 45.7315 33.4814V33.4815C45.732 35.1568 45.6683 38.2972 45.4593 41.3079C45.3548 42.8134 45.2142 44.2827 45.0278 45.5185C44.8399 46.7641 44.6096 47.7417 44.3379 48.2851C43.5758 49.8093 42.787 51.1612 41.5323 52.1387C40.2846 53.1107 38.5482 53.7329 35.8535 53.7329C30.4918 53.7329 27.8498 51.0862 24.4193 47.6366Z" stroke="#BB86FC" stroke-opacity="0.75" stroke-width="0.5"/>
<path d="M22.25 13.5454C22.25 13.0454 21.75 12.5454 21.25 12.5454H6.5V10.9829C6.5 10.6799 6.1925 10.4064 5.912 10.2899C5.6315 10.1734 5.184 10.2379 4.9695 10.4524L2.5 13.2329C2.207 13.5259 2.207 13.9399 2.5 14.2329L4.9695 17.0134C5.184 17.2279 5.6315 17.2924 5.912 17.1759C6.1925 17.0594 6.5 16.7859 6.5 16.4829V14.5454H21.25C21.75 14.5454 22.25 14.0454 22.25 13.5454Z" fill="#BB86FC" fill-opacity="0.75"/>
<path d="M6.75 16.4829V14.7954H21.25C21.5813 14.7954 21.8917 14.6322 22.1143 14.4096C22.3369 14.1871 22.5 13.8767 22.5 13.5454C22.5 13.2141 22.3369 12.9037 22.1143 12.6811C21.8917 12.4585 21.5813 12.2954 21.25 12.2954H6.75V10.9829C6.75 10.7459 6.63109 10.5439 6.49457 10.3965C6.35635 10.2473 6.17875 10.1299 6.00789 10.059C5.81447 9.97865 5.58325 9.96636 5.37571 10.0003C5.16933 10.034 4.94867 10.1196 4.79272 10.2756L4.78749 10.2808L4.78258 10.2863L2.31768 13.0617C2.13195 13.25 2.03025 13.4866 2.03025 13.7329C2.03025 13.9791 2.13195 14.2157 2.31768 14.4041L4.78258 17.1794L4.78749 17.1849L4.79272 17.1901C4.94867 17.3461 5.16933 17.4318 5.37571 17.4655C5.58325 17.4994 5.81447 17.4871 6.00789 17.4067C6.17875 17.3358 6.35635 17.2184 6.49457 17.0692C6.63109 16.9219 6.75 16.7199 6.75 16.4829Z" stroke="#BB86FC" stroke-opacity="0.75" stroke-width="0.5"/>
<path d="M8.75 9.54536H24V11.4829C24 11.7859 24.0575 12.0594 24.338 12.1759C24.6185 12.2924 24.816 12.2279 25.0305 12.0134L28 9.23286C28.293 8.93986 28.293 8.52586 28 8.23286L25.0305 5.45236C24.816 5.23786 24.6185 5.17336 24.338 5.28986C24.0575 5.40636 24 5.67936 24 5.98286V7.54536H8.75C8.25 7.54536 7.75 8.04536 7.75 8.54536C7.75 9.04536 8.25 9.54536 8.75 9.54536Z" fill="#BB86FC" fill-opacity="0.75"/>
<path d="M28.1709 9.41535L28.171 9.41545L28.1768 9.40964C28.366 9.22038 28.4697 8.98154 28.4697 8.73286C28.4697 8.48418 28.366 8.24534 28.1768 8.05608L28.1769 8.05599L28.1709 8.05037L25.2043 5.27258C25.0815 5.15041 24.9414 5.04825 24.7708 5.00474C24.5939 4.95962 24.418 4.98592 24.2421 5.05898C23.8058 5.24018 23.75 5.66991 23.75 5.98286V7.29536H8.75C8.41869 7.29536 8.10831 7.4585 7.88572 7.68108C7.66314 7.90367 7.5 8.21405 7.5 8.54536C7.5 8.87667 7.66314 9.18705 7.88572 9.40964C8.10831 9.63222 8.41869 9.79536 8.75 9.79536H23.75V11.4829C23.75 11.7952 23.8058 12.2255 24.2421 12.4067C24.418 12.4798 24.5939 12.5061 24.7708 12.461C24.9414 12.4175 25.0815 12.3153 25.2043 12.1931L28.1709 9.41535Z" stroke="#BB86FC" stroke-opacity="0.75" stroke-width="0.5"/>
</svg>
