<svg width="30" height="33" viewBox="0 0 30 33" fill="none" xmlns="http://www.w3.org/2000/svg">
<path d="M9.37499 4.78392C9.37499 2.24212 11.8934 0.181641 15 0.181641C18.1066 0.181641 20.625 2.24212 20.625 4.78392C20.625 7.32566 18.1066 9.3862 15 9.3862C11.8934 9.3862 9.37499 7.32566 9.37499 4.78392ZM29.2678 4.87168C28.2915 4.07287 26.7085 4.07287 25.7323 4.87168L18.9645 10.4089H11.0355L4.26772 4.87168C3.29147 4.07287 1.7085 4.07287 0.732247 4.87168C-0.244082 5.6705 -0.244082 6.96559 0.732247 7.76441L8.12499 13.813V30.8635C8.12499 31.9932 9.24429 32.909 10.625 32.909H11.875C13.2557 32.909 14.375 31.9932 14.375 30.8635V23.7044H15.625V30.8635C15.625 31.9932 16.7443 32.909 18.125 32.909H19.375C20.7557 32.909 21.875 31.9932 21.875 30.8635V13.813L29.2678 7.76434C30.2441 6.96553 30.2441 5.6705 29.2678 4.87168Z" fill="#BB86FC" fill-opacity="0.75"/>
</svg>
