<svg width="23" height="22" viewBox="0 0 23 22" fill="none" xmlns="http://www.w3.org/2000/svg">
<path d="M11.0086 5.97012C7.88537 5.97012 5.36618 8.3748 5.36618 11.3561C5.36618 14.3373 7.88537 16.742 11.0086 16.742C14.1318 16.742 16.651 14.3373 16.651 11.3561C16.651 8.3748 14.1318 5.97012 11.0086 5.97012ZM11.0086 14.8576C8.99028 14.8576 7.34028 13.2873 7.34028 11.3561C7.34028 9.4248 8.98537 7.85449 11.0086 7.85449C13.0318 7.85449 14.6769 9.4248 14.6769 11.3561C14.6769 13.2873 13.0269 14.8576 11.0086 14.8576ZM18.1979 5.7498C18.1979 6.44824 17.6086 7.00605 16.8818 7.00605C16.1501 7.00605 15.5657 6.44355 15.5657 5.7498C15.5657 5.05605 16.155 4.49355 16.8818 4.49355C17.6086 4.49355 18.1979 5.05605 18.1979 5.7498ZM21.9349 7.02481C21.8514 5.34199 21.4488 3.85137 20.1572 2.62324C18.8706 1.39512 17.309 1.01074 15.5461 0.926367C13.7291 0.82793 8.28314 0.82793 6.46618 0.926367C4.70814 1.00605 3.14654 1.39043 1.85502 2.61855C0.563504 3.84668 0.165736 5.3373 0.0773437 7.02012C-0.0257812 8.75449 -0.0257812 13.9529 0.0773437 15.6873C0.160826 17.3701 0.563504 18.8607 1.85502 20.0889C3.14654 21.317 4.70323 21.7014 6.46618 21.7857C8.28314 21.8842 13.7291 21.8842 15.5461 21.7857C17.309 21.7061 18.8706 21.3217 20.1572 20.0889C21.4438 18.8607 21.8465 17.3701 21.9349 15.6873C22.038 13.9529 22.038 8.75918 21.9349 7.02481ZM19.5876 17.5482C19.2046 18.467 18.463 19.1748 17.4956 19.5451C16.047 20.0936 12.6095 19.967 11.0086 19.967C9.40769 19.967 5.96529 20.0889 4.52154 19.5451C3.55904 19.1795 2.81752 18.4717 2.42957 17.5482C1.85502 16.1654 1.98761 12.8842 1.98761 11.3561C1.98761 9.82793 1.85993 6.54199 2.42957 5.16387C2.81261 4.24512 3.55413 3.5373 4.52154 3.16699C5.9702 2.61855 9.40769 2.74512 11.0086 2.74512C12.6095 2.74512 16.0519 2.62324 17.4956 3.16699C18.4581 3.53262 19.1997 4.24043 19.5876 5.16387C20.1622 6.54668 20.0296 9.82793 20.0296 11.3561C20.0296 12.8842 20.1622 16.1701 19.5876 17.5482Z" fill="#BB86FC" fill-opacity="0.75"/>
</svg>
