<svg width="98" height="37" viewBox="0 0 98 37" fill="none" xmlns="http://www.w3.org/2000/svg">
<g clip-path="url(#clip0)">
<path d="M1.15323 3.78525V33.2148C1.15323 33.554 1.22005 33.89 1.34988 34.2034C1.4797 34.5168 1.66999 34.8016 1.90988 35.0415C2.14977 35.2814 2.43456 35.4717 2.74799 35.6015C3.06142 35.7313 3.39735 35.7982 3.7366 35.7982H75.8357C77.5004 35.7982 79.1079 35.1904 80.3561 34.0889L96.0867 20.2089C96.3291 19.995 96.5232 19.732 96.6562 19.4373C96.7892 19.1426 96.858 18.823 96.858 18.4997C96.858 18.1764 96.7892 17.8568 96.6562 17.5621C96.5232 17.2674 96.3291 17.0044 96.0866 16.7905L80.3562 2.91106C79.1079 1.80965 77.5004 1.20187 75.8357 1.20187H3.7366C3.39735 1.20187 3.06142 1.26869 2.74799 1.39852C2.43456 1.52835 2.14977 1.71864 1.90988 1.95853C1.66999 2.19841 1.4797 2.4832 1.34988 2.79663C1.22005 3.11006 1.15323 3.44599 1.15323 3.78525ZM87.454 14.831C88.0431 15.201 88.5426 15.7005 88.9127 16.2896C89.6618 17.4818 89.6619 19.9979 88.913 21.1903C88.5429 21.7796 88.0433 22.2792 87.454 22.6493C86.2617 23.3982 83.7455 23.3981 82.5533 22.649C81.9642 22.2789 81.4647 21.7794 81.0947 21.1903C80.3458 19.998 80.346 17.4818 81.095 16.2896C81.465 15.7007 81.9644 15.2013 82.5533 14.8314C83.7455 14.0823 86.2616 14.0821 87.454 14.8311L87.454 14.831Z" fill="#BB86FC" stroke="black" stroke-width="2.30644" stroke-linecap="round" stroke-linejoin="round"/>
<path d="M21.6509 9.30274H15.8477V25.0859H11.9442V9.30274H6.21909V6.1409H21.6509V9.30274Z" fill="black"/>
<path d="M29.6011 25.0859C29.4276 24.7476 29.3018 24.3269 29.2237 23.8238C28.3129 24.8387 27.1289 25.3461 25.6716 25.3461C24.2923 25.3461 23.1473 24.9471 22.2365 24.1491C21.3343 23.351 20.8833 22.3448 20.8833 21.1304C20.8833 19.6384 21.4341 18.4933 22.5357 17.6953C23.6461 16.8972 25.2465 16.4939 27.3371 16.4852H29.0676V15.6785C29.0676 15.0279 28.8985 14.5074 28.5601 14.1171C28.2305 13.7267 27.7057 13.5315 26.9857 13.5315C26.3525 13.5315 25.8537 13.6833 25.4894 13.9869C25.1337 14.2906 24.9559 14.7069 24.9559 15.2361H21.1955C21.1955 14.4207 21.4471 13.666 21.9502 12.972C22.4533 12.2781 23.1646 11.7359 24.0841 11.3456C25.0036 10.9466 26.0359 10.747 27.1809 10.747C28.9158 10.747 30.2907 11.1851 31.3056 12.0612C32.3292 12.9287 32.841 14.1518 32.841 15.7305V21.833C32.8497 23.1689 33.0362 24.1794 33.4005 24.8647V25.0859H29.6011ZM26.4913 22.4706C27.0465 22.4706 27.5582 22.3491 28.0267 22.1062C28.4951 21.8547 28.8421 21.5207 29.0676 21.1043V18.6842H27.6623C25.78 18.6842 24.7781 19.3347 24.6566 20.6359L24.6436 20.8571C24.6436 21.3255 24.8084 21.7115 25.1381 22.0152C25.4677 22.3188 25.9188 22.4706 26.4913 22.4706Z" fill="black"/>
<path d="M35.1831 17.9425C35.1831 15.7826 35.6949 14.0433 36.7184 12.7248C37.7507 11.4063 39.1386 10.747 40.8822 10.747C42.4262 10.747 43.6276 11.2762 44.4864 12.3345L44.6425 11.0073H48.0516V24.6175C48.0516 25.8493 47.7697 26.9206 47.2058 27.8314C46.6507 28.7422 45.8656 29.4361 44.8507 29.9132C43.8358 30.3903 42.6474 30.6289 41.2855 30.6289C40.2533 30.6289 39.247 30.4207 38.2668 30.0043C37.2866 29.5966 36.5449 29.0675 36.0418 28.4169L37.7073 26.1268C38.6442 27.1765 39.7805 27.7013 41.1164 27.7013C42.1139 27.7013 42.8903 27.4324 43.4455 26.8945C44.0006 26.3654 44.2782 25.6107 44.2782 24.6305V23.8758C43.4108 24.856 42.2701 25.3461 40.8562 25.3461C39.1646 25.3461 37.7941 24.6869 36.7445 23.3684C35.7035 22.0412 35.1831 20.2846 35.1831 18.0986V17.9425ZM38.9434 18.2157C38.9434 19.4909 39.1993 20.4928 39.7111 21.2214C40.2229 21.9414 40.9255 22.3014 41.819 22.3014C42.964 22.3014 43.7838 21.872 44.2782 21.0133V15.0929C43.7751 14.2342 42.964 13.8048 41.845 13.8048C40.9429 13.8048 40.2316 14.1735 39.7111 14.9108C39.1993 15.6481 38.9434 16.7498 38.9434 18.2157Z" fill="black"/>
<path d="M55.3381 25.0859H51.4346V6.1409H55.3381V25.0859Z" fill="black"/>
<path d="M63.2102 7.54617V11.0073H65.6174V13.7658H63.2102V20.7921C63.2102 21.3125 63.31 21.6855 63.5095 21.9111C63.709 22.1366 64.0907 22.2494 64.6545 22.2494C65.0709 22.2494 65.4396 22.219 65.7605 22.1583V25.0078C65.0232 25.2334 64.2642 25.3462 63.4835 25.3462C60.8464 25.3462 59.5019 24.0146 59.4498 21.3516V13.7658H57.394V11.0073H59.4498V7.54617H63.2102Z" fill="black"/>
</g>
<defs>
<clipPath id="clip0">
<rect width="98" height="36.9027" fill="white" transform="translate(0 0.048645)"/>
</clipPath>
</defs>
</svg>
