<svg width="25" height="25" viewBox="0 0 25 25" fill="none" xmlns="http://www.w3.org/2000/svg">
<path d="M22.3214 0.61377H2.67857C1.19978 0.61377 0 1.75901 0 3.17059V21.9206C0 23.3322 1.19978 24.4774 2.67857 24.4774H22.3214C23.8002 24.4774 25 23.3322 25 21.9206V3.17059C25 1.75901 23.8002 0.61377 22.3214 0.61377ZM20.5357 14.0371C20.5357 14.3886 20.2344 14.6763 19.8661 14.6763H14.7321V19.5768C14.7321 19.9284 14.4308 20.216 14.0625 20.216H10.9375C10.5692 20.216 10.2679 19.9284 10.2679 19.5768V14.6763H5.13393C4.76562 14.6763 4.46429 14.3886 4.46429 14.0371V11.0541C4.46429 10.7025 4.76562 10.4149 5.13393 10.4149H10.2679V5.51434C10.2679 5.16278 10.5692 4.87513 10.9375 4.87513H14.0625C14.4308 4.87513 14.7321 5.16278 14.7321 5.51434V10.4149H19.8661C20.2344 10.4149 20.5357 10.7025 20.5357 11.0541V14.0371Z" fill="#BB86FC" fill-opacity="0.75"/>
</svg>
