<svg width="25" height="25" viewBox="0 0 25 25" fill="none" xmlns="http://www.w3.org/2000/svg">
<path d="M12.7986 8.27112C10.0469 8.27112 7.81982 10.3969 7.81982 13.0236C7.81982 15.6502 10.0469 17.7761 12.7986 17.7761C15.5503 17.7761 17.7774 15.6502 17.7774 13.0236C17.7774 10.3969 15.5448 8.27112 12.7986 8.27112ZM16.2983 11.2867L13.0107 12.917C12.9102 12.965 12.7986 12.8957 12.7986 12.7945V9.25145C12.7986 9.17153 12.8712 9.1076 12.9493 9.11292C14.4117 9.1662 15.6787 9.9494 16.3597 11.0896C16.3987 11.1588 16.3708 11.2494 16.2983 11.2867ZM21.718 0.247314H3.28756C1.47354 0.247314 0 1.65388 0 3.38544V20.9728C0 22.7097 1.47354 24.1163 3.28756 24.1163H21.7124C23.532 24.1163 25 22.7097 25 20.9781V3.38544C25.0056 1.65388 23.532 0.247314 21.718 0.247314ZM10.4097 4.76004C10.4097 4.18463 10.8953 3.7211 11.4981 3.7211H14.0266C14.6294 3.7211 15.115 4.18463 15.115 4.76004V5.58053C15.115 5.67643 15.0201 5.74037 14.9308 5.71373C14.2442 5.53258 13.5298 5.44201 12.8042 5.44201C12.0507 5.44201 11.3139 5.53791 10.605 5.73504C10.5102 5.76168 10.4153 5.69242 10.4153 5.60184V4.76004H10.4097ZM5.69881 6.73136L6.21232 6.24119C6.63652 5.83627 7.32306 5.83627 7.74726 6.24119L8.17704 6.65144C8.23844 6.71005 8.23286 6.81128 8.1603 6.86455C7.81424 7.10431 7.48493 7.36538 7.17794 7.65841C6.87653 7.94612 6.59745 8.26046 6.35186 8.58546C6.29604 8.65473 6.18999 8.66538 6.1286 8.60145L5.69881 8.1912C5.27461 7.79161 5.27461 7.13628 5.69881 6.73136ZM12.7986 19.774C8.89149 19.774 5.7323 16.7531 5.7323 13.0289C5.7323 9.30473 8.89707 6.28381 12.7986 6.28381C16.7057 6.28381 19.8649 9.2994 19.8649 13.0289C19.8649 16.7478 16.7001 19.774 12.7986 19.774Z" fill="#BB86FC" fill-opacity="0.75"/>
</svg>
