<svg width="25" height="29" viewBox="0 0 25 29" fill="none" xmlns="http://www.w3.org/2000/svg">
<path d="M19.4508 12.8079L11.1742 1.52159C10.8226 1.04209 10.3456 0.772709 9.84836 0.772705H1.875C0.839453 0.772705 0 1.91741 0 3.32952V14.2023C2.6003e-06 14.8804 0.197548 15.5307 0.54918 16.0102L8.82582 27.2966C9.55801 28.2951 10.7452 28.2951 11.4775 27.2966L19.4508 16.4238C20.1831 15.4253 20.1831 13.8064 19.4508 12.8079ZM4.375 9.29544C3.33945 9.29544 2.5 8.15073 2.5 6.73862C2.5 5.32651 3.33945 4.1818 4.375 4.1818C5.41055 4.1818 6.25 5.32651 6.25 6.73862C6.25 8.15073 5.41055 9.29544 4.375 9.29544ZM24.4508 16.4238L16.4775 27.2966C15.7452 28.2951 14.5581 28.2951 13.8258 27.2966L13.8118 27.2774L20.6109 18.0058C21.275 17.1003 21.6406 15.8964 21.6406 14.6159C21.6406 13.3353 21.2749 12.1314 20.6109 11.2259L12.9452 0.772705H14.8484C15.3456 0.772709 15.8226 1.04209 16.1742 1.52159L24.4508 12.8079C25.1831 13.8064 25.1831 15.4253 24.4508 16.4238Z" fill="#BB86FC" fill-opacity="0.75"/>
</svg>
