<svg width="22" height="22" viewBox="0 0 22 22" fill="none" xmlns="http://www.w3.org/2000/svg">
<path d="M19.6429 0.855957H2.35714C1.0558 0.855957 0 1.86377 0 3.10596V19.606C0 20.8481 1.0558 21.856 2.35714 21.856H19.6429C20.9442 21.856 22 20.8481 22 19.606V3.10596C22 1.86377 20.9442 0.855957 19.6429 0.855957ZM17.2415 8.29971C17.2513 8.43096 17.2513 8.56689 17.2513 8.69814C17.2513 12.7622 14.0103 17.445 8.08795 17.445C6.26116 17.445 4.56696 16.9388 3.14286 16.0669C3.40312 16.095 3.65357 16.1044 3.91875 16.1044C5.42634 16.1044 6.81116 15.6169 7.91607 14.7919C6.50179 14.7638 5.31339 13.8778 4.9058 12.6591C5.40179 12.7294 5.84866 12.7294 6.35938 12.6028C4.88616 12.3169 3.78125 11.0794 3.78125 9.58408V9.54658C4.20848 9.77627 4.70937 9.91689 5.23482 9.93564C4.79307 9.65516 4.43093 9.27465 4.18072 8.82806C3.93052 8.38148 3.80002 7.88271 3.80089 7.37627C3.80089 6.80439 3.95804 6.27939 4.23795 5.82471C5.82411 7.69033 8.2058 8.90908 10.8772 9.04033C10.4205 6.9544 12.0558 5.26221 14.0201 5.26221C14.9482 5.26221 15.783 5.63252 16.3723 6.23252C17.0991 6.10127 17.7964 5.84346 18.4152 5.49189C18.1746 6.20439 17.6687 6.80439 17.0009 7.18408C17.6491 7.11846 18.2777 6.94502 18.8571 6.70596C18.4201 7.32002 17.8701 7.86377 17.2415 8.29971Z" fill="#BB86FC" fill-opacity="0.75"/>
</svg>
